<mxfile host="app.diagrams.net" modified="2023-07-16T18:55:40.886Z" agent="Mozilla/5.0 (X11; Ubuntu; Linux x86_64; rv:109.0) Gecko/20100101 Firefox/115.0" version="21.6.2" etag="qheBEpNZ7lqI2k9chFS1" type="github">
  <diagram name="Page-1" id="p7Q0gR2Xs5QQkEZGU7Py">
    <mxGraphModel>
      <root>
        <mxCell id="0" />
        <mxCell id="1" parent="0" />
      </root>
    </mxGraphModel>
  </diagram>
</mxfile>
